<?xml version="1.0" encoding="utf-8"?>
<!-- Generator: Adobe Illustrator 22.1.0, SVG Export Plug-In . SVG Version: 6.00 Build 0)  -->
<svg version="1.1" id="Layer_1" xmlns="http://www.w3.org/2000/svg" xmlns:xlink="http://www.w3.org/1999/xlink" x="0px" y="0px"
	 viewBox="0 0 336 188" style="enable-background:new 0 0 336 188;" xml:space="preserve">
<style type="text/css">
	.st0{fill:#FEFFFF;}
</style>
<path class="st0" d="M66.3,118.6H54.1l-2.6-17.9H38.4l-2.6,17.9H23.9l13.6-78.8h15.2L66.3,118.6z M44.8,56.7L40,89.9h10l-4.8-33.2
	H44.8z"/>
<path class="st0" d="M111.8,59.8v38.9c0,12.9-7,19.9-19.8,19.9H74.8V39.9h17.1C104.8,39.9,111.8,46.8,111.8,59.8z M86.8,50.9v56.7
	h4.7c5.7,0,8.3-3,8.3-9.7V60.6c0-6.6-2.6-9.7-8.3-9.7H86.8z"/>
<path class="st0" d="M182,118.6h-15.1l-8.4-58.2h-0.3l-8.5,58.2h-15.1l-15.1-97.8h15.2l8.5,64.8h0.3l8.4-64.8h13.1l8.4,64.8h0.3
	l8.5-64.8h14.8L182,118.6z"/>
<path class="st0" d="M218.1,118.6h-11.9V39.9h11.9V118.6z"/>
<path class="st0" d="M263.1,51.1h-12.7v67.5h-11.9V51.1h-12.7V39.9h37.4V51.1z"/>
<path class="st0" d="M307.7,58.7v41.2c0,12.4-7.3,19.9-19.2,19.9c-11.9,0-19.2-7.5-19.2-19.9V58.7c0-12.4,7.3-19.9,19.2-19.9
	C300.4,38.7,307.7,46.3,307.7,58.7z M281.1,58.8v41c0,5.9,2.6,9,7.3,9c4.7,0,7.3-3.2,7.3-9v-41c0-5.9-2.6-9-7.3-9
	C283.7,49.8,281.1,52.9,281.1,58.8z"/>
<path class="st0" d="M40.2,159.2h-3.9v-17.7h-0.1L33,155.5h-2.3l-3.2-14.1h-0.1v17.7h-3.6v-25.5h5.1l3,13.7H32l3-13.7h5.2V159.2z"/>
<path class="st0" d="M75.8,159.2h-3.9l-0.8-5.8h-4.3l-0.8,5.8h-3.9l4.4-25.5h4.9L75.8,159.2z M68.9,139.1l-1.6,10.8h3.2L69,139.1
	H68.9z"/>
<path class="st0" d="M106.5,159.2l-3.1-10.8h-1.8v10.8h-3.9v-25.5h5.6c4.2,0,6.4,2.3,6.4,6.5v1.8c0,2.7-0.9,4.6-2.7,5.6l3.5,11.6
	H106.5z M101.6,137.2v7.6h1.6c1.9,0,2.7-1,2.7-3.1v-1.3c0-2.2-0.8-3.1-2.7-3.1H101.6z"/>
<path class="st0" d="M140.7,143.8l5.4,15.4h-4.1l-3.8-11.2l-1.7,3.3v7.9h-3.9v-25.5h3.9v10.6h0.1l5.4-10.6h4L140.7,143.8z"/>
<path class="st0" d="M178.3,137.2h-7v7.2h5.6v3.6h-5.6v7.6h7v3.6h-10.9v-25.5h10.9V137.2z"/>
<path class="st0" d="M211.2,137.3h-4.1v21.9h-3.9v-21.9h-4.1v-3.6h12.1V137.3z"/>
<path class="st0" d="M236.7,159.2h-3.9v-25.5h3.9V159.2z"/>
<path class="st0" d="M272.6,159.2h-3.8l-5.1-16.9h-0.1v16.9h-3.6v-25.5h4.3l4.6,15.2h0.1v-15.2h3.6V159.2z"/>
<path class="st0" d="M307.7,139.4v1.7l-3.7,0.2v-1.5c0-2-0.8-3-2.3-3c-1.5,0-2.3,0.9-2.3,2.6v13.9c0,1.7,0.7,2.6,2.2,2.6
	c1.5,0,2.2-0.9,2.2-3v-4.4h-2.2v-3.6h6v8.3c0,3.9-2.2,6.1-6.1,6.1c-3.8,0-6-2.3-6-6.1v-14c0-3.9,2.2-6.1,6-6.1
	C305.4,133.3,307.7,135.5,307.7,139.4z"/>
</svg>
