<?xml version="1.0" encoding="utf-8"?>
<!-- Generator: Adobe Illustrator 22.1.0, SVG Export Plug-In . SVG Version: 6.00 Build 0)  -->
<svg version="1.1" xmlns="http://www.w3.org/2000/svg" xmlns:xlink="http://www.w3.org/1999/xlink" x="0px" y="0px"
	 viewBox="0 0 356 261.7" style="enable-background:new 0 0 356 261.7;" xml:space="preserve">
<style type="text/css">
	.st0{display:none;}
	.st1{display:inline;}
	.st2{fill:#F9F9FA;}
	.st3{fill:#F9F9FA;stroke:#F9F9FA;stroke-width:5;stroke-linecap:round;stroke-linejoin:round;stroke-miterlimit:10;}
	.st4{fill:#0E1920;}
	.st5{fill:#0E1920;stroke:#0E1920;stroke-width:5;stroke-linecap:round;stroke-linejoin:round;stroke-miterlimit:10;}
</style>
<g id="Layer_1" class="st0">
	<image style="overflow:visible;" width="325" height="260" xlink:href="509F6B44.jpg"  transform="matrix(1 0 0 1 82 318.8541)">
	</image>
	<g class="st1">
		<g>
			<path class="st2" d="M23.1,99.1c0-0.6,0.5-1.2,1.2-1.2h15.3c8,0,14.6,6.5,14.6,14.4c0,8.1-6.6,14.6-14.5,14.6h-8.1v15.3
				c0,0.6-0.6,1.2-1.2,1.2h-6c-0.7,0-1.2-0.6-1.2-1.2V99.1z M39.4,118.9c3.6,0,6.4-2.9,6.4-6.8c0-3.6-2.8-6.3-6.4-6.3h-7.8v13.1
				H39.4z"/>
			<path class="st2" d="M61.4,99.1c0-0.6,0.6-1.2,1.2-1.2h6c0.6,0,1.2,0.6,1.2,1.2v43c0,0.6-0.6,1.2-1.2,1.2h-6
				c-0.6,0-1.2-0.6-1.2-1.2V99.1z"/>
			<path class="st2" d="M89.5,135.5h16.6c0.7,0,1.2,0.6,1.2,1.2v5.4c0,0.6-0.5,1.2-1.2,1.2H78.3c-0.7,0-1.2-0.6-1.2-1.2
				c0-0.7,0-1.2,0.5-2L96.5,106v-0.3H80.2c-0.7,0-1.2-0.6-1.2-1.2v-5.4c0-0.6,0.6-1.2,1.2-1.2h27.2c0.6,0,1.2,0.6,1.2,1.2
				c0,0.4,0,0.8-0.6,1.9l-18.5,34.4V135.5z"/>
			<path class="st2" d="M124.5,135.5h16.6c0.7,0,1.2,0.6,1.2,1.2v5.4c0,0.6-0.5,1.2-1.2,1.2h-27.8c-0.7,0-1.2-0.6-1.2-1.2
				c0-0.7,0-1.2,0.5-2l18.9-34.1v-0.3h-16.3c-0.7,0-1.2-0.6-1.2-1.2v-5.4c0-0.6,0.6-1.2,1.2-1.2h27.2c0.6,0,1.2,0.6,1.2,1.2
				c0,0.4,0,0.8-0.6,1.9l-18.5,34.4V135.5z"/>
			<path class="st2" d="M145.5,141.7l20.2-43.7c0.2-0.4,0.5-0.7,1.1-0.7h0.6c0.7,0,0.9,0.3,1.1,0.7l20,43.7c0.4,0.8-0.1,1.7-1.1,1.7
				h-5.7c-1,0-1.4-0.4-1.9-1.3l-3.2-7h-19.4l-3.2,7c-0.3,0.6-0.8,1.3-1.9,1.3h-5.7C145.7,143.4,145.2,142.5,145.5,141.7z
				 M173.6,127.8l-6.5-14.3h-0.2l-6.4,14.3H173.6z"/>
			<path class="st2" d="M233.3,120.4c3.8,1.3,7.8,4.4,7.8,10.5c0,7.3-6.2,12.5-14.2,12.5h-15.7c-0.7,0-1.2-0.6-1.2-1.2v-43
				c0-0.6,0.5-1.2,1.2-1.2h14.9c7.7,0,13.7,5.2,13.7,12c0,4.9-3.1,8.5-6.5,10.1V120.4z M225.4,117c3.3,0,5.5-2.6,5.5-5.9
				c0-3.2-2.1-5.5-5.5-5.5h-7.1V117H225.4z M226.4,135.7c3.3,0,5.7-2.5,5.7-5.9c0-3.3-2.5-5.7-5.7-5.7h-8v11.6H226.4z"/>
			<path class="st2" d="M270.7,97.2c13,0,23.4,10.5,23.4,23.5c0,13-10.4,23.3-23.4,23.3c-13,0-23.3-10.3-23.3-23.3
				C247.4,107.7,257.7,97.2,270.7,97.2z M270.7,135.6c8.2,0,15-6.7,15-14.9c0-8.2-6.8-15-15-15c-8.2,0-14.9,6.8-14.9,15
				C255.8,128.9,262.5,135.6,270.7,135.6z"/>
			<path class="st2" d="M311,120l-13-20.3c-0.5-0.8,0-1.8,1.1-1.8h7.5c0.5,0,0.8,0.3,1,0.6l8.2,13.8h0.3l8.4-13.8
				c0.1-0.3,0.5-0.6,1-0.6h7.5c1.1,0,1.6,1,1.1,1.8L321.1,120l13.5,21.5c0.5,0.9,0,1.8-1.1,1.8h-7c-0.5,0-1-0.3-1.1-0.6l-9.3-14.9
				h-0.3l-9.1,14.9c-0.2,0.3-0.6,0.6-1.1,0.6h-7c-1.2,0-1.7-1-1.2-1.8L311,120z"/>
			<path class="st2" d="M23.1,149.1c0-0.8,0.6-1.6,1.6-1.6h5.7c0.8,0,1.6,0.7,1.6,1.6v17.6l16.4-18.5c0.3-0.3,0.6-0.7,1.2-0.7h6.5
				c1.2,0,1.9,1.4,1,2.3l-17,19.1l18.2,21.8c0.6,0.8,0.1,2.3-1.2,2.3h-7.1c-0.6,0-1-0.3-1.2-0.5l-17-20.9v19.8
				c0,0.8-0.7,1.6-1.6,1.6h-5.7c-0.9,0-1.6-0.7-1.6-1.6V149.1z"/>
			<path class="st2" d="M83.5,146.9c13,0,23.4,10.5,23.4,23.5c0,13-10.4,23.3-23.4,23.3s-23.3-10.3-23.3-23.3
				C60.1,157.3,70.5,146.9,83.5,146.9z M83.5,185.2c8.2,0,15-6.7,15-14.9c0-8.2-6.8-15-15-15s-14.9,6.8-14.9,15
				C68.6,178.5,75.3,185.2,83.5,185.2z"/>
			<path class="st2" d="M115.3,148c0-0.6,0.6-1.2,1.2-1.2h1c0.5,0,0.8,0.1,1.1,0.5l26.5,28.3h0.1v-26.8c0-0.6,0.5-1.2,1.2-1.2h6
				c0.6,0,1.2,0.6,1.2,1.2v43.7c0,0.6-0.6,1.2-1.2,1.2h-0.9c-0.5,0-0.8-0.1-1.1-0.5l-26.7-29.4h-0.1v28c0,0.6-0.5,1.2-1.2,1.2h-5.9
				c-0.6,0-1.2-0.6-1.2-1.2V148z"/>
			<path class="st2" d="M185.5,146.9c6.6,0,11.3,2.1,15.7,6c0.6,0.5,0.6,1.3,0.1,1.8l-4,4.1c-0.5,0.5-1.1,0.5-1.6,0
				c-2.7-2.4-6.4-3.8-10-3.8c-8.3,0-14.5,7-14.5,15.1c0,8.1,6.2,15,14.6,15c3.9,0,7.2-1.5,9.9-3.7c0.5-0.5,1.2-0.4,1.6,0l4,4.2
				c0.5,0.5,0.4,1.3-0.1,1.8c-4.4,4.3-10,6.3-15.8,6.3c-13,0-23.5-10.3-23.5-23.3C162.1,157.3,172.5,146.9,185.5,146.9z"/>
			<path class="st2" d="M209.5,148.7c0-0.6,0.5-1.2,1.2-1.2h26.5c0.7,0,1.2,0.6,1.2,1.2v5.3c0,0.6-0.5,1.2-1.2,1.2h-19.2V166H234
				c0.6,0,1.2,0.6,1.2,1.2v5.4c0,0.7-0.6,1.2-1.2,1.2h-16.1v11.4h19.2c0.7,0,1.2,0.6,1.2,1.2v5.3c0,0.6-0.5,1.2-1.2,1.2h-26.5
				c-0.7,0-1.2-0.6-1.2-1.2V148.7z"/>
			<path class="st2" d="M246.9,148.7c0-0.6,0.5-1.2,1.2-1.2h15.3c8,0,14.6,6.5,14.6,14.4c0,8.1-6.6,14.6-14.5,14.6h-8.1v15.3
				c0,0.6-0.6,1.2-1.2,1.2h-6c-0.7,0-1.2-0.6-1.2-1.2V148.7z M263.2,168.6c3.6,0,6.4-2.9,6.4-6.8c0-3.6-2.8-6.3-6.4-6.3h-7.8v13.1
				H263.2z"/>
			<path class="st2" d="M292.5,155.3h-9.9c-0.7,0-1.2-0.6-1.2-1.2v-5.3c0-0.6,0.5-1.2,1.2-1.2H311c0.7,0,1.2,0.6,1.2,1.2v5.3
				c0,0.6-0.5,1.2-1.2,1.2h-9.9v36.5c0,0.6-0.6,1.2-1.2,1.2h-6c-0.7,0-1.2-0.6-1.2-1.2V155.3z"/>
		</g>
		<path class="st3" d="M65.6,77.1h27.4c0,0,31.2-32,88.7-46.6l9.5,46.6h19.4L199.5,9.9C199.5,9.9,127.8,18.3,65.6,77.1z"/>
		<polygon class="st3" points="162.8,213.1 194.3,213.1 222.4,230.9 218.5,213.1 233.1,213.1 240.2,256 		"/>
	</g>
</g>
<g id="Layer_2">
	<g>
		<g>
			<path class="st4" d="M23.1,98.8c0-0.6,0.5-1.2,1.2-1.2h15.3c8,0,14.6,6.5,14.6,14.4c0,8.1-6.6,14.6-14.5,14.6h-8.1v15.3
				c0,0.6-0.6,1.2-1.2,1.2h-6c-0.7,0-1.2-0.6-1.2-1.2V98.8z M39.4,118.7c3.6,0,6.4-2.9,6.4-6.8c0-3.6-2.8-6.3-6.4-6.3h-7.8v13.1
				H39.4z"/>
			<path class="st4" d="M61.4,98.8c0-0.6,0.6-1.2,1.2-1.2h6c0.6,0,1.2,0.6,1.2,1.2v43c0,0.6-0.6,1.2-1.2,1.2h-6
				c-0.6,0-1.2-0.6-1.2-1.2V98.8z"/>
			<path class="st4" d="M89.5,135.2h16.6c0.7,0,1.2,0.6,1.2,1.2v5.4c0,0.6-0.5,1.2-1.2,1.2H78.3c-0.7,0-1.2-0.6-1.2-1.2
				c0-0.7,0-1.2,0.5-2l18.9-34.1v-0.3H80.2c-0.7,0-1.2-0.6-1.2-1.2v-5.4c0-0.6,0.6-1.2,1.2-1.2h27.2c0.6,0,1.2,0.6,1.2,1.2
				c0,0.4,0,0.8-0.6,1.9l-18.5,34.4V135.2z"/>
			<path class="st4" d="M124.5,135.2h16.6c0.7,0,1.2,0.6,1.2,1.2v5.4c0,0.6-0.5,1.2-1.2,1.2h-27.8c-0.7,0-1.2-0.6-1.2-1.2
				c0-0.7,0-1.2,0.5-2l18.9-34.1v-0.3h-16.3c-0.7,0-1.2-0.6-1.2-1.2v-5.4c0-0.6,0.6-1.2,1.2-1.2h27.2c0.6,0,1.2,0.6,1.2,1.2
				c0,0.4,0,0.8-0.6,1.9l-18.5,34.4V135.2z"/>
			<path class="st4" d="M145.5,141.4l20.2-43.7c0.2-0.4,0.5-0.7,1.1-0.7h0.6c0.7,0,0.9,0.3,1.1,0.7l20,43.7c0.4,0.8-0.1,1.7-1.1,1.7
				h-5.7c-1,0-1.4-0.4-1.9-1.3l-3.2-7h-19.4l-3.2,7c-0.3,0.6-0.8,1.3-1.9,1.3h-5.7C145.7,143.1,145.2,142.3,145.5,141.4z
				 M173.6,127.6l-6.5-14.3h-0.2l-6.4,14.3H173.6z"/>
			<path class="st4" d="M233.3,120.1c3.8,1.3,7.8,4.4,7.8,10.5c0,7.3-6.2,12.5-14.2,12.5h-15.7c-0.7,0-1.2-0.6-1.2-1.2v-43
				c0-0.6,0.5-1.2,1.2-1.2h14.9c7.7,0,13.7,5.2,13.7,12c0,4.9-3.1,8.5-6.5,10.1V120.1z M225.4,116.7c3.3,0,5.5-2.6,5.5-5.9
				c0-3.2-2.1-5.5-5.5-5.5h-7.1v11.4H225.4z M226.4,135.4c3.3,0,5.7-2.5,5.7-5.9c0-3.3-2.5-5.7-5.7-5.7h-8v11.6H226.4z"/>
			<path class="st4" d="M270.7,97c13,0,23.4,10.5,23.4,23.5c0,13-10.4,23.3-23.4,23.3c-13,0-23.3-10.3-23.3-23.3
				C247.4,107.4,257.7,97,270.7,97z M270.7,135.3c8.2,0,15-6.7,15-14.9c0-8.2-6.8-15-15-15c-8.2,0-14.9,6.8-14.9,15
				C255.8,128.6,262.5,135.3,270.7,135.3z"/>
			<path class="st4" d="M311,119.8l-13-20.3c-0.5-0.8,0-1.8,1.1-1.8h7.5c0.5,0,0.8,0.3,1,0.6l8.2,13.8h0.3l8.4-13.8
				c0.1-0.3,0.5-0.6,1-0.6h7.5c1.1,0,1.6,1,1.1,1.8l-13.1,20.3l13.5,21.5c0.5,0.9,0,1.8-1.1,1.8h-7c-0.5,0-1-0.3-1.1-0.6l-9.3-14.9
				h-0.3l-9.1,14.9c-0.2,0.3-0.6,0.6-1.1,0.6h-7c-1.2,0-1.7-1-1.2-1.8L311,119.8z"/>
			<path class="st4" d="M23.1,148.8c0-0.8,0.6-1.6,1.6-1.6h5.7c0.8,0,1.6,0.7,1.6,1.6v17.6l16.4-18.5c0.3-0.3,0.6-0.7,1.2-0.7h6.5
				c1.2,0,1.9,1.4,1,2.3l-17,19.1l18.2,21.8c0.6,0.8,0.1,2.3-1.2,2.3h-7.1c-0.6,0-1-0.3-1.2-0.5l-17-20.9v19.8
				c0,0.8-0.7,1.6-1.6,1.6h-5.7c-0.9,0-1.6-0.7-1.6-1.6V148.8z"/>
			<path class="st4" d="M83.5,146.6c13,0,23.4,10.5,23.4,23.5c0,13-10.4,23.3-23.4,23.3s-23.3-10.3-23.3-23.3
				C60.1,157.1,70.5,146.6,83.5,146.6z M83.5,185c8.2,0,15-6.7,15-14.9c0-8.2-6.8-15-15-15s-14.9,6.8-14.9,15
				C68.6,178.3,75.3,185,83.5,185z"/>
			<path class="st4" d="M115.3,147.8c0-0.6,0.6-1.2,1.2-1.2h1c0.5,0,0.8,0.1,1.1,0.5l26.5,28.3h0.1v-26.8c0-0.6,0.5-1.2,1.2-1.2h6
				c0.6,0,1.2,0.6,1.2,1.2v43.7c0,0.6-0.6,1.2-1.2,1.2h-0.9c-0.5,0-0.8-0.1-1.1-0.5l-26.7-29.4h-0.1v28c0,0.6-0.5,1.2-1.2,1.2h-5.9
				c-0.6,0-1.2-0.6-1.2-1.2V147.8z"/>
			<path class="st4" d="M185.5,146.6c6.6,0,11.3,2.1,15.7,6c0.6,0.5,0.6,1.3,0.1,1.8l-4,4.1c-0.5,0.5-1.1,0.5-1.6,0
				c-2.7-2.4-6.4-3.8-10-3.8c-8.3,0-14.5,7-14.5,15.1c0,8.1,6.2,15,14.6,15c3.9,0,7.2-1.5,9.9-3.7c0.5-0.5,1.2-0.4,1.6,0l4,4.2
				c0.5,0.5,0.4,1.3-0.1,1.8c-4.4,4.3-10,6.3-15.8,6.3c-13,0-23.5-10.3-23.5-23.3C162.1,157.1,172.5,146.6,185.5,146.6z"/>
			<path class="st4" d="M209.5,148.5c0-0.6,0.5-1.2,1.2-1.2h26.5c0.7,0,1.2,0.6,1.2,1.2v5.3c0,0.6-0.5,1.2-1.2,1.2h-19.2v10.7H234
				c0.6,0,1.2,0.6,1.2,1.2v5.4c0,0.7-0.6,1.2-1.2,1.2h-16.1V185h19.2c0.7,0,1.2,0.6,1.2,1.2v5.3c0,0.6-0.5,1.2-1.2,1.2h-26.5
				c-0.7,0-1.2-0.6-1.2-1.2V148.5z"/>
			<path class="st4" d="M246.9,148.5c0-0.6,0.5-1.2,1.2-1.2h15.3c8,0,14.6,6.5,14.6,14.4c0,8.1-6.6,14.6-14.5,14.6h-8.1v15.3
				c0,0.6-0.6,1.2-1.2,1.2h-6c-0.7,0-1.2-0.6-1.2-1.2V148.5z M263.2,168.3c3.6,0,6.4-2.9,6.4-6.8c0-3.6-2.8-6.3-6.4-6.3h-7.8v13.1
				H263.2z"/>
			<path class="st4" d="M292.5,155.1h-9.9c-0.7,0-1.2-0.6-1.2-1.2v-5.3c0-0.6,0.5-1.2,1.2-1.2H311c0.7,0,1.2,0.6,1.2,1.2v5.3
				c0,0.6-0.5,1.2-1.2,1.2h-9.9v36.5c0,0.6-0.6,1.2-1.2,1.2h-6c-0.7,0-1.2-0.6-1.2-1.2V155.1z"/>
		</g>
		<path class="st5" d="M65.6,76.8h27.4c0,0,31.2-32,88.7-46.6l9.5,46.6h19.4L199.5,9.6C199.5,9.6,127.8,18,65.6,76.8z"/>
		<polygon class="st5" points="162.8,212.8 194.3,212.8 222.4,230.6 218.5,212.8 233.1,212.8 240.2,255.7 		"/>
	</g>
</g>
</svg>
